<svg id="visual" viewBox="0 0 900 600" width="900" height="600" xmlns="http://www.w3.org/2000/svg" xmlns:xlink="http://www.w3.org/1999/xlink" version="1.1"><path d="M0 163L13.7 174C27.3 185 54.7 207 82 206C109.3 205 136.7 181 163.8 175C191 169 218 181 245.2 177C272.3 173 299.7 153 327 155C354.3 157 381.7 181 409 186C436.3 191 463.7 177 491 179C518.3 181 545.7 199 573 212C600.3 225 627.7 233 654.8 238C682 243 709 245 736.2 231C763.3 217 790.7 187 818 170C845.3 153 872.7 149 886.3 147L900 145L900 41L886.3 44C872.7 47 845.3 53 818 64C790.7 75 763.3 91 736.2 102C709 113 682 119 654.8 115C627.7 111 600.3 97 573 83C545.7 69 518.3 55 491 51C463.7 47 436.3 53 409 54C381.7 55 354.3 51 327 56C299.7 61 272.3 75 245.2 80C218 85 191 81 163.8 77C136.7 73 109.3 69 82 63C54.7 57 27.3 49 13.7 45L0 41Z" fill="#3c80ff"></path><path d="M0 385L13.7 393C27.3 401 54.7 417 82 411C109.3 405 136.7 377 163.8 371C191 365 218 381 245.2 378C272.3 375 299.7 353 327 351C354.3 349 381.7 367 409 385C436.3 403 463.7 421 491 411C518.3 401 545.7 363 573 346C600.3 329 627.7 333 654.8 348C682 363 709 389 736.2 397C763.3 405 790.7 395 818 399C845.3 403 872.7 421 886.3 430L900 439L900 143L886.3 145C872.7 147 845.3 151 818 168C790.7 185 763.3 215 736.2 229C709 243 682 241 654.8 236C627.7 231 600.3 223 573 210C545.7 197 518.3 179 491 177C463.7 175 436.3 189 409 184C381.7 179 354.3 155 327 153C299.7 151 272.3 171 245.2 175C218 179 191 167 163.8 173C136.7 179 109.3 203 82 204C54.7 205 27.3 183 13.7 172L0 161Z" fill="#0066ff"></path><path d="M0 499L13.7 510C27.3 521 54.7 543 82 547C109.3 551 136.7 537 163.8 536C191 535 218 547 245.2 543C272.3 539 299.7 519 327 513C354.3 507 381.7 515 409 525C436.3 535 463.7 547 491 545C518.3 543 545.7 527 573 525C600.3 523 627.7 535 654.8 540C682 545 709 543 736.2 536C763.3 529 790.7 517 818 517C845.3 517 872.7 529 886.3 535L900 541L900 437L886.3 428C872.7 419 845.3 401 818 397C790.7 393 763.3 403 736.2 395C709 387 682 361 654.8 346C627.7 331 600.3 327 573 344C545.7 361 518.3 399 491 409C463.7 419 436.3 401 409 383C381.7 365 354.3 347 327 349C299.7 351 272.3 373 245.2 376C218 379 191 363 163.8 369C136.7 375 109.3 403 82 409C54.7 415 27.3 399 13.7 391L0 383Z" fill="#0059dd"></path><path d="M0 601L13.7 601C27.3 601 54.7 601 82 601C109.3 601 136.7 601 163.8 601C191 601 218 601 245.2 601C272.3 601 299.7 601 327 601C354.3 601 381.7 601 409 601C436.3 601 463.7 601 491 601C518.3 601 545.7 601 573 601C600.3 601 627.7 601 654.8 601C682 601 709 601 736.2 601C763.3 601 790.7 601 818 601C845.3 601 872.7 601 886.3 601L900 601L900 539L886.3 533C872.7 527 845.3 515 818 515C790.7 515 763.3 527 736.2 534C709 541 682 543 654.8 538C627.7 533 600.3 521 573 523C545.7 525 518.3 541 491 543C463.7 545 436.3 533 409 523C381.7 513 354.3 505 327 511C299.7 517 272.3 537 245.2 541C218 545 191 533 163.8 534C136.7 535 109.3 549 82 545C54.7 541 27.3 519 13.7 508L0 497Z" fill="#004cbb"></path></svg>